:SAMPLES-PER-SECOND 30
:FULLY-SPECIFIED
:DEGREES
262
root  18.1055 42.4937 -7.28971 -64.1365 78.8704 -64.8159
RightUpLeg  -2.17416 -5.79799 4.7781
RightLeg  72.1129 1.97621 6.0455
RightFoot  -33.7785 2.40295 13.2881
RightToes  0.00048216 0.542163 -0.142577
Spine  -1.24787 1.90736 12.1119
Spine1  5.61627 2.03811 2.12574
HEad  6.29468 -0.912781 2.80814
LeftShoulder1  3.20407 -5.48093 -29.5372
LeftArm  -25.1778 58.5091 -33.4451
LeftForeArm  37.4127 -29.9514 -4.46203
LeftHand  -0.25398 0.0180481 5.50724
RightShoulder  2.93094 5.29616 27.2792
RightArm  3.88028 -24.9018 39.2726
RightForeArm  12.3031 45.2987 10.4651
RightHand  -0.63005 -0.627391 -15.2667
LeftUpLeg  -7.74211 11.9755 10.2896
LeftLeg  -0.560713 13.2431 -6.73421
LeftFoot  22.6449 0.000952718 -0.12347
LeftToes  1.06247e-005 4.65855e-005 -8.185e-006
263
root  19.5921 41.011 -7.47794 -80.4343 81.4034 -81.1105
RightUpLeg  -4.5652 -9.2643 -0.0556926
RightLeg  82.8587 1.19631 9.33895
RightFoot  -24.8258 1.61052 14.9125
RightToes  0.00048216 0.542163 -0.142577
Spine  0.274266 0.62426 6.23242
Spine1  3.09833 0.178458 5.62693
HEad  2.61455 -2.12335 4.61162
LeftShoulder1  3.164 -5.26222 -29.9962
LeftArm  -26.0993 59.3033 -33.3169
LeftForeArm  37.2574 -30.2261 -4.5406
LeftHand  -0.25398 0.0180481 5.50724
RightShoulder  2.64962 4.486 27.1374
RightArm  -0.326956 -28.7914 37.4222
RightForeArm  11.6779 42.6113 9.53728
RightHand  -0.595946 -0.639887 -14.5862
LeftUpLeg  -9.74268 17.7456 4.91922
LeftLeg  9.71715 4.00652 -2.83122
LeftFoot  4.07637 -0.974742 6.8232
LeftToes  1.06247e-005 4.65855e-005 -8.185e-006
264
root  20.6288 39.6349 -7.4831 -111.523 84.7338 -111.303
RightUpLeg  -9.02596 -10.5061 -5.40057
RightLeg  94.7389 -0.701725 8.81808
RightFoot  -15.4843 0.435749 14.7111
RightToes  0.00048216 0.542163 -0.142577
Spine  5.31458 -0.236692 -2.50528
Spine1  1.21679 -1.77349 9.64395
HEad  -4.79279 -2.66908 6.57228
LeftShoulder1  3.20338 -4.82102 -32.3607
LeftArm  -25.4756 53.8125 -32.7762
LeftForeArm  35.1134 -25.5502 -3.54997
LeftHand  -0.25398 0.0180481 5.50724
RightShoulder  2.90672 4.62159 29.7526
RightArm  -7.74222 -28.6061 35.4686
RightForeArm  10.8846 35.7482 7.46428
RightHand  -0.958566 1.59795 -15.7799
LeftUpLeg  -13.2457 19.0944 -1.49401
LeftLeg  21.5286 0.541683 1.17543
LeftFoot  -8.92584 -0.202435 9.89179
LeftToes  1.06247e-005 4.65855e-005 -8.185e-006
265
root  21.3553 38.7039 -7.39174 -157.527 86.3171 -154.947
RightUpLeg  -13.9195 -8.65898 -8.37984
RightLeg  103.831 -1.76501 7.38022
RightFoot  -10.8669 -0.129183 13.0199
RightToes  0.00048216 0.542163 -0.142577
Spine  11.698 -0.02111 -7.79857
Spine1  1.48147 -2.58202 10.2579
HEad  -12.8604 -3.18484 8.26869
LeftShoulder1  3.95469 -5.86022 -36.0046
LeftArm  -22.5909 42.9756 -31.5315
LeftForeArm  29.8359 -16.3653 -1.78182
LeftHand  -0.25398 0.0180481 5.50724
RightShoulder  3.51475 5.56562 32.8086
RightArm  -17.8638 -25.4564 36.2649
RightForeArm  5.84167 24.3994 5.01964
RightHand  -1.85573 5.34898 -20.2386
LeftUpLeg  -13.817 12.9213 -4.24311
LeftLeg  30.587 5.48422 3.77883
LeftFoot  -13.2959 0.226386 8.50712
LeftToes  1.06247e-005 4.65855e-005 -8.185e-006
266
root  22.1283 38.3986 -7.40197 -179.07 86.6576 -173.1
RightUpLeg  -18.1652 -5.10993 -7.84144
RightLeg  106.941 -1.87669 6.51153
RightFoot  -9.48222 -0.241343 10.6933
RightToes  0.00048216 0.542163 -0.142577
Spine  16.8557 0.191438 -5.94723
Spine1  3.48971 -1.79042 5.78004
HEad  -18.3609 -4.58583 9.22701
LeftShoulder1  5.66116 -8.81163 -39.687
LeftArm  -18.813 30.4956 -29.0407
LeftForeArm  26.3017 -7.77207 -1.36306
LeftHand  -0.25398 0.0180481 5.50724
RightShoulder  4.03034 6.69825 33.5793
RightArm  -25.8384 -22.5305 39.9146
RightForeArm  -2.63018 12.7805 3.64008
RightHand  -2.19856 5.79968 -22.948
LeftUpLeg  -10.1123 11.3933 -4.56327
LeftLeg  33.6079 6.87206 5.22964
LeftFoot  -14.5688 0.278171 6.7061
LeftToes  1.06247e-005 4.65855e-005 -8.185e-006
267
root  23.0691 38.586 -7.51152 176.824 87.1609 -174.621
RightUpLeg  -21.805 -2.36591 -6.10785
RightLeg  103.667 -0.999217 4.70182
RightFoot  -8.93868 -0.27048 9.93973
RightToes  0.00048216 0.542163 -0.142577
Spine  19.6738 -0.350561 -1.68945
Spine1  6.04421 -0.63392 0.0423333
HEad  -20.9947 -6.40556 9.36845
LeftShoulder1  7.62648 -11.9222 -42.9916
LeftArm  -15.9314 19.1057 -26.0359
LeftForeArm  29.8217 -4.62431 -2.36031
LeftHand  -0.25398 0.0180481 5.50724
RightShoulder  4.42644 7.85391 33.0273
RightArm  -24.0735 -22.0174 43.1555
RightForeArm  -7.68037 7.18454 3.93644
RightHand  -1.24455 1.85135 -19.6078
LeftUpLeg  -4.16632 11.3811 -3.96332
LeftLeg  31.1261 7.53706 5.236
LeftFoot  -15.86 0.346146 6.34683
LeftToes  1.06247e-005 4.65855e-005 -8.185e-006
268
root  24.1304 39.0103 -7.58638 167.542 86.1458 176.71
RightUpLeg  -25.2992 -2.35264 -5.24447
RightLeg  95.9124 0.220275 0.316069
RightFoot  -8.44759 -0.295929 9.44345
RightToes  0.00048216 0.542163 -0.142577
Spine  20.161 -1.27774 0.052781
Spine1  8.39402 -0.60922 -2.7022
HEad  -22.4202 -7.54757 9.08958
LeftShoulder1  9.10363 -13.7163 -46.1261
LeftArm  -12.8858 8.82262 -23.5709
LeftForeArm  38.0253 -6.68894 -3.95307
LeftHand  -0.25398 0.0180481 5.50724
RightShoulder  4.97375 9.0161 33.7662
RightArm  -15.5828 -23.6754 42.9481
RightForeArm  -0.306942 10.2681 5.69204
RightHand  -0.593621 -0.511571 -14.5225
LeftUpLeg  0.66298 11.3388 -3.99122
LeftLeg  26.3998 7.22114 4.23827
LeftFoot  -15.3705 0.308974 6.09974
LeftToes  1.06247e-005 4.65855e-005 -8.185e-006
269
root  25.2359 39.5081 -7.59951 164.574 83.6658 173.018
RightUpLeg  -28.3204 -4.33033 -4.65124
RightLeg  85.0907 0.0690751 -4.52895
RightFoot  -8.6564 -0.231622 7.25162
RightToes  0.00048216 0.542163 -0.142577
Spine  19.5462 -2.31379 -0.124196
Spine1  10.1503 -1.6783 -2.6375
HEad  -23.3932 -7.91828 8.74743
LeftShoulder1  9.97769 -14.345 -48.8147
LeftArm  -8.95609 -1.03157 -22.4686
LeftForeArm  43.9704 -10.6901 -5.4433
LeftHand  -0.25398 0.0180481 5.50724
RightShoulder  5.50105 9.74782 35.5501
RightArm  -3.65927 -25.7148 40.589
RightForeArm  8.84366 18.5561 5.30839
RightHand  -0.905929 1.35971 -15.4161
LeftUpLeg  3.88953 11.6666 -3.70734
LeftLeg  21.6889 4.84208 2.48221
LeftFoot  -12.7952 0.141696 4.9459
LeftToes  1.06247e-005 4.65855e-005 -8.185e-006
270
root  26.3746 39.8512 -7.61855 166.902 81.3405 174.371
RightUpLeg  -29.8129 -6.27984 -3.90298
RightLeg  71.817 -1.51412 -6.30968
RightFoot  -9.85138 -0.14828 6.50009
RightToes  0.00048216 0.542163 -0.142577
Spine  18.8647 -3.21075 -0.188088
Spine1  10.9844 -2.79224 -2.22713
HEad  -23.3495 -8.17339 8.37448
LeftShoulder1  10.4404 -14.6109 -50.321
LeftArm  -3.66422 -9.76199 -23.541
LeftForeArm  42.1856 -15.1052 -5.34541
LeftHand  -0.25398 0.0180481 5.50724
RightShoulder  5.57626 9.78494 35.9793
RightArm  3.99088 -27.4509 39.1015
RightForeArm  11.7324 25.8744 4.76494
RightHand  -1.50486 3.40345 -20.0684
LeftUpLeg  6.44404 12.6528 -2.5193
LeftLeg  18.1428 1.20445 0.651417
LeftFoot  -10.9651 0.0520457 3.61906
LeftToes  1.06247e-005 4.65855e-005 -8.185e-006
271
root  27.5992 39.9298 -7.66106 166.537 79.5933 173.092
RightUpLeg  -29.473 -8.19031 -3.62594
RightLeg  56.503 -3.49089 -6.03832
RightFoot  -10.7114 -0.120098 8.33295
RightToes  0.00048216 0.542163 -0.142577
Spine  18.1017 -3.72876 -0.716235
Spine1  10.9891 -3.60293 -2.04546
HEad  -22.1451 -8.6221 8.07933
LeftShoulder1  10.5488 -14.789 -50.3456
LeftArm  0.0576779 -16.6108 -26.583
LeftForeArm  35.8844 -19.8757 -3.96505
LeftHand  -0.25398 0.0180481 5.50724
RightShoulder  5.23582 9.47456 34.3878
RightArm  6.86418 -29.119 39.2333
RightForeArm  10.6813 30.6485 6.10624
RightHand  -1.66235 3.84298 -20.9949
LeftUpLeg  8.75819 11.9839 -1.85688
LeftLeg  15.7414 -0.314157 -0.847603
LeftFoot  -10.981 0.056056 3.20322
LeftToes  1.06247e-005 4.65855e-005 -8.185e-006
272
root  28.9058 39.8082 -7.68663 163.09 77.9185 168.651
RightUpLeg  -28.1634 -12.0274 -3.35707
RightLeg  40.0425 -6.11525 -5.82563
RightFoot  -10.5828 -0.12826 8.67985
RightToes  0.00048216 0.542163 -0.142577
Spine  17.0778 -3.94078 -2.58969
Spine1  10.7702 -4.40513 -1.1115
HEad  -20.6185 -9.25043 8.17131
LeftShoulder1  10.3234 -14.7541 -49.3664
LeftArm  0.761825 -22.3305 -30.5003
LeftForeArm  31.0377 -24.5722 -3.5143
LeftHand  -0.25398 0.0180481 5.50724
RightShoulder  4.93324 9.31723 32.54
RightArm  8.57001 -30.3899 39.4292
RightForeArm  7.48696 33.8633 7.11905
RightHand  -1.08722 1.94143 -17.163
LeftUpLeg  10.636 8.9025 -2.64701
LeftLeg  14.133 1.25019 -1.84913
LeftFoot  -11.6544 0.0793631 3.25939
LeftToes  1.06247e-005 4.65855e-005 -8.185e-006
